<?xml version="1.0" encoding="utf-8"?>
<!-- Generator: Adobe Illustrator 15.1.0, SVG Export Plug-In  -->
<!DOCTYPE svg PUBLIC "-//W3C//DTD SVG 1.1//EN" "http://www.w3.org/Graphics/SVG/1.1/DTD/svg11.dtd" [
	<!ENTITY ns_flows "http://ns.adobe.com/Flows/1.0/">
]>
<svg version="1.1"
	 xmlns="http://www.w3.org/2000/svg" xmlns:xlink="http://www.w3.org/1999/xlink" xmlns:a="http://ns.adobe.com/AdobeSVGViewerExtensions/3.0/"
	 x="0px" y="0px" width="64px" height="64px" viewBox="0 0 64 64" style="enable-background:new 0 0 64 64;" xml:space="preserve">
<style type="text/css">
<![CDATA[
	.st0{display:none;opacity:0.5;fill:#E42320;}
	.st1{fill:#fff;}
]]>
</style>
<defs>
</defs>
<path class="st1" d="M31,44c6.07,0,11-4.93,11-11s-4.93-11-11-11s-11,4.93-11,11S24.93,44,31,44z M31,24c4.96,0,9,4.04,9,9
	s-4.04,9-9,9s-9-4.04-9-9S26.04,24,31,24z"/>
<path class="st1" d="M7,38h3.61c0.52,2.1,1.36,4.13,2.47,5.95l-2.21,2.21c-1.15,1.15-1.15,3.03,0,4.19l2.77,2.77
	c1.12,1.12,3.07,1.12,4.19,0l2.21-2.21c1.84,1.13,3.84,1.96,5.95,2.47V57c0,1.65,1.35,3,3,3h4c1.65,0,3-1.35,3-3v-3.61
	c2.1-0.52,4.13-1.36,5.95-2.47l2.21,2.21c1.12,1.12,3.07,1.12,4.19,0l2.77-2.78c0.56-0.56,0.87-1.3,0.87-2.09
	c0-0.79-0.31-1.54-0.87-2.1l-2.21-2.21c1.13-1.84,1.96-3.84,2.47-5.96H55c1.65,0,3-1.35,3-3v-4c0-1.65-1.35-3-3-3h-3.61
	c-0.52-2.09-1.36-4.13-2.48-5.95l2.21-2.22c1.15-1.15,1.15-3.03,0-4.19l-2.78-2.78c-1.12-1.12-3.07-1.12-4.19,0l-2.21,2.21
	C40.1,13.94,38.1,13.11,36,12.6V9c0-1.65-1.35-3-3-3h-4c-1.65,0-3,1.35-3,3v3.6c-2.11,0.51-4.1,1.35-5.96,2.48l-2.21-2.21
	c-1.12-1.12-3.07-1.12-4.19,0l-2.78,2.78C10.31,16.2,10,16.95,10,17.74s0.31,1.54,0.87,2.09l2.21,2.21
	c-1.13,1.85-1.96,3.84-2.48,5.96H7c-1.65,0-3,1.35-3,3v4C4,36.65,5.35,38,7,38z M6,31c0-0.55,0.45-1,1-1h4.41
	c0.48,0,0.89-0.33,0.98-0.8c0.49-2.42,1.43-4.69,2.8-6.74c0.26-0.4,0.21-0.93-0.13-1.26l-2.78-2.78C12.1,18.24,12,17.99,12,17.74
	s0.1-0.5,0.28-0.68l2.78-2.78c0.36-0.36,1-0.36,1.36,0l2.78,2.78c0.34,0.34,0.87,0.39,1.26,0.12c2.05-1.37,4.32-2.32,6.74-2.81
	c0.47-0.09,0.8-0.5,0.8-0.98V9c0-0.55,0.45-1,1-1h4c0.55,0,1,0.45,1,1v4.4c0,0.48,0.33,0.89,0.8,0.98c2.41,0.49,4.68,1.43,6.74,2.81
	c0.39,0.26,0.92,0.21,1.26-0.12l2.78-2.78c0.36-0.36,1-0.36,1.36,0l2.78,2.78c0.37,0.38,0.37,0.99,0,1.36l-2.78,2.78
	c-0.34,0.34-0.39,0.87-0.13,1.26c1.34,2.01,2.31,4.34,2.8,6.74c0.09,0.47,0.5,0.8,0.98,0.8H55c0.55,0,1,0.45,1,1v4
	c0,0.55-0.45,1-1,1h-4.41c-0.48,0-0.89,0.33-0.98,0.8c-0.49,2.43-1.43,4.7-2.8,6.74c-0.26,0.4-0.21,0.93,0.13,1.26l2.78,2.78
	C49.9,47.76,50,48,50,48.26c0,0.26-0.1,0.5-0.28,0.68l-2.77,2.78c-0.36,0.36-1,0.36-1.36,0l-2.78-2.78
	c-0.34-0.34-0.87-0.39-1.26-0.12c-2,1.34-4.33,2.31-6.74,2.8c-0.47,0.1-0.8,0.5-0.8,0.98V57c0,0.55-0.45,1-1,1h-4
	c-0.55,0-1-0.45-1-1v-4.41c0-0.48-0.33-0.89-0.8-0.98c-2.43-0.49-4.69-1.43-6.74-2.8c-0.17-0.11-0.36-0.17-0.56-0.17
	c-0.26,0-0.51,0.1-0.71,0.29l-2.78,2.78c-0.37,0.36-1,0.36-1.36,0l-2.77-2.77c-0.38-0.38-0.38-0.99,0-1.36l2.78-2.78
	c0.34-0.34,0.39-0.87,0.12-1.26c-1.34-2.01-2.31-4.34-2.8-6.74c-0.09-0.47-0.5-0.8-0.98-0.8H7c-0.55,0-1-0.45-1-1V31z"/>
<rect id="cog_1_" class="st0" width="64" height="64"/>
</svg>
